<svg xmlns="http://www.w3.org/2000/svg" xmlns:xlink="http://www.w3.org/1999/xlink" id="processonSvg1000" viewBox="102.0 121.0 574.0 487.0" width="574.0" height="487.0"><defs id="ProcessOnDefs1001"><marker id="ProcessOnMarker1059" markerUnits="userSpaceOnUse" orient="auto" markerWidth="16.23606797749979" markerHeight="10.550836550532098" viewBox="-1.0 -1.3763819204711736 16.23606797749979 10.550836550532098" refX="-1.0" refY="3.8990363547948754"><path id="ProcessOnPath1060" d="M12.0 3.8990363547948754L0.0 7.798072709589751V0.0Z" stroke="#323232" stroke-width="2.0" fill="#323232" transform="matrix(1.0,0.0,0.0,1.0,0.0,0.0)"/></marker><marker id="ProcessOnMarker1063" markerUnits="userSpaceOnUse" orient="auto" markerWidth="16.23606797749979" markerHeight="10.550836550532098" viewBox="-1.0 -1.3763819204711736 16.23606797749979 10.550836550532098" refX="-1.0" refY="3.8990363547948754"><path id="ProcessOnPath1064" d="M12.0 3.8990363547948754L0.0 7.798072709589751V0.0Z" stroke="#323232" stroke-width="2.0" fill="#323232" transform="matrix(1.0,0.0,0.0,1.0,0.0,0.0)"/></marker><marker id="ProcessOnMarker1067" markerUnits="userSpaceOnUse" orient="auto" markerWidth="16.23606797749979" markerHeight="10.550836550532098" viewBox="-1.0 -1.3763819204711736 16.23606797749979 10.550836550532098" refX="-1.0" refY="3.8990363547948754"><path id="ProcessOnPath1068" d="M12.0 3.8990363547948754L0.0 7.798072709589751V0.0Z" stroke="#323232" stroke-width="2.0" fill="#323232" transform="matrix(1.0,0.0,0.0,1.0,0.0,0.0)"/></marker><marker id="ProcessOnMarker1071" markerUnits="userSpaceOnUse" orient="auto" markerWidth="16.23606797749979" markerHeight="10.550836550532098" viewBox="-1.0 -1.3763819204711736 16.23606797749979 10.550836550532098" refX="-1.0" refY="3.8990363547948754"><path id="ProcessOnPath1072" d="M12.0 3.8990363547948754L0.0 7.798072709589751V0.0Z" stroke="#323232" stroke-width="2.0" fill="#323232" transform="matrix(1.0,0.0,0.0,1.0,0.0,0.0)"/></marker><marker id="ProcessOnMarker1075" markerUnits="userSpaceOnUse" orient="auto" markerWidth="16.23606797749979" markerHeight="10.550836550532098" viewBox="-1.0 -1.3763819204711736 16.23606797749979 10.550836550532098" refX="-1.0" refY="3.8990363547948754"><path id="ProcessOnPath1076" d="M12.0 3.8990363547948754L0.0 7.798072709589751V0.0Z" stroke="#323232" stroke-width="2.0" fill="#323232" transform="matrix(1.0,0.0,0.0,1.0,0.0,0.0)"/></marker><marker id="ProcessOnMarker1079" markerUnits="userSpaceOnUse" orient="auto" markerWidth="16.23606797749979" markerHeight="10.550836550532098" viewBox="-1.0 -1.3763819204711736 16.23606797749979 10.550836550532098" refX="-1.0" refY="3.8990363547948754"><path id="ProcessOnPath1080" d="M12.0 3.8990363547948754L0.0 7.798072709589751V0.0Z" stroke="#323232" stroke-width="2.0" fill="#323232" transform="matrix(1.0,0.0,0.0,1.0,0.0,0.0)"/></marker><marker id="ProcessOnMarker1083" markerUnits="userSpaceOnUse" orient="auto" markerWidth="16.23606797749979" markerHeight="10.550836550532098" viewBox="-1.0 -1.3763819204711736 16.23606797749979 10.550836550532098" refX="-1.0" refY="3.8990363547948754"><path id="ProcessOnPath1084" d="M12.0 3.8990363547948754L0.0 7.798072709589751V0.0Z" stroke="#323232" stroke-width="2.0" fill="#323232" transform="matrix(1.0,0.0,0.0,1.0,0.0,0.0)"/></marker><marker id="ProcessOnMarker1087" markerUnits="userSpaceOnUse" orient="auto" markerWidth="20.47213595499958" markerHeight="13.303600391474445" viewBox="-2.0 -2.752763840942347 20.47213595499958 13.303600391474445" refX="-2.0" refY="3.8990363547948754"><path id="ProcessOnPath1088" d="M12.0 3.8990363547948754L0.0 7.798072709589751V0.0Z" stroke="#323232" stroke-width="4.0" fill="#323232" transform="matrix(1.0,0.0,0.0,1.0,0.0,0.0)"/></marker><marker id="ProcessOnMarker1091" markerUnits="userSpaceOnUse" orient="auto" markerWidth="20.47213595499958" markerHeight="13.303600391474445" viewBox="-2.0 -2.752763840942347 20.47213595499958 13.303600391474445" refX="-2.0" refY="3.8990363547948754"><path id="ProcessOnPath1092" d="M12.0 3.8990363547948754L0.0 7.798072709589751V0.0Z" stroke="#323232" stroke-width="4.0" fill="#323232" transform="matrix(1.0,0.0,0.0,1.0,0.0,0.0)"/></marker><marker id="ProcessOnMarker1095" markerUnits="userSpaceOnUse" orient="auto" markerWidth="20.47213595499958" markerHeight="13.303600391474445" viewBox="-2.0 -2.752763840942347 20.47213595499958 13.303600391474445" refX="-2.0" refY="3.8990363547948754"><path id="ProcessOnPath1096" d="M12.0 3.8990363547948754L0.0 7.798072709589751V0.0Z" stroke="#323232" stroke-width="4.0" fill="#323232" transform="matrix(1.0,0.0,0.0,1.0,0.0,0.0)"/></marker><marker id="ProcessOnMarker1099" markerUnits="userSpaceOnUse" orient="auto" markerWidth="20.47213595499958" markerHeight="13.303600391474445" viewBox="-2.0 -2.752763840942347 20.47213595499958 13.303600391474445" refX="-2.0" refY="3.8990363547948754"><path id="ProcessOnPath1100" d="M12.0 3.8990363547948754L0.0 7.798072709589751V0.0Z" stroke="#323232" stroke-width="4.0" fill="#323232" transform="matrix(1.0,0.0,0.0,1.0,0.0,0.0)"/></marker></defs><g id="ProcessOnG1002"><path id="ProcessOnPath1003" d="M102.0 121.0H676.0V608.0H102.0V121.0Z" fill="none"/><g id="ProcessOnG1004"><g id="ProcessOnG1005" transform="matrix(1.0,0.0,0.0,1.0,318.0,157.0)" opacity="1.0"><path id="ProcessOnPath1006" d="M0.0 0.0L125.0 0.0L125.0 71.0L0.0 71.0Z" stroke="#323232" stroke-width="2.0" stroke-dasharray="none" fill="#ffffff"/><g id="ProcessOnG1007" transform="matrix(1.0,0.0,0.0,1.0,10.0,13.0)"><text id="ProcessOnText1008" fill="#323232" font-weight="normal" font-style="normal" text-decoration="blink" font-family="微软雅黑" text-anchor="middle" font-size="18" x="52.5" y="18.45">划分聚类算</text><text id="ProcessOnText1009" fill="#323232" font-weight="normal" font-style="normal" text-decoration="blink" font-family="微软雅黑" text-anchor="middle" font-size="18" x="52.5" y="40.95">法</text></g></g><g id="ProcessOnG1010" transform="matrix(1.0,0.0,0.0,1.0,122.0,338.0)" opacity="1.0"><path id="ProcessOnPath1011" d="M0.0 0.0L100.0 0.0L100.0 70.0L0.0 70.0Z" stroke="#323232" stroke-width="2.0" stroke-dasharray="none" fill="#ffffff"/><g id="ProcessOnG1012" transform="matrix(1.0,0.0,0.0,1.0,10.0,23.75)"><text id="ProcessOnText1013" fill="#323232" font-weight="normal" font-style="normal" text-decoration="blink" font-family="微软雅黑" text-anchor="middle" font-size="18" x="40.0" y="18.45">聚类算法</text></g></g><g id="ProcessOnG1014" transform="matrix(1.0,0.0,0.0,1.0,318.0,276.0)" opacity="1.0"><path id="ProcessOnPath1015" d="M0.0 0.0L125.0 0.0L125.0 72.0L0.0 72.0Z" stroke="#323232" stroke-width="2.0" stroke-dasharray="none" fill="#ffffff"/><g id="ProcessOnG1016" transform="matrix(1.0,0.0,0.0,1.0,10.0,13.5)"><text id="ProcessOnText1017" fill="#323232" font-weight="normal" font-style="normal" text-decoration="blink" font-family="微软雅黑" text-anchor="middle" font-size="18" x="52.5" y="18.45">层次聚类算</text><text id="ProcessOnText1018" fill="#323232" font-weight="normal" font-style="normal" text-decoration="blink" font-family="微软雅黑" text-anchor="middle" font-size="18" x="52.5" y="40.95">法</text></g></g><g id="ProcessOnG1019" transform="matrix(1.0,0.0,0.0,1.0,318.0,398.0)" opacity="1.0"><path id="ProcessOnPath1020" d="M0.0 0.0L125.0 0.0L125.0 70.0L0.0 70.0Z" stroke="#323232" stroke-width="2.0" stroke-dasharray="none" fill="#ffffff"/><g id="ProcessOnG1021" transform="matrix(1.0,0.0,0.0,1.0,10.0,12.5)"><text id="ProcessOnText1022" fill="#323232" font-weight="normal" font-style="normal" text-decoration="blink" font-family="微软雅黑" text-anchor="middle" font-size="18" x="52.5" y="18.45">基于密度的</text><text id="ProcessOnText1023" fill="#323232" font-weight="normal" font-style="normal" text-decoration="blink" font-family="微软雅黑" text-anchor="middle" font-size="18" x="52.5" y="40.95">聚类算法</text></g></g><g id="ProcessOnG1024" transform="matrix(1.0,0.0,0.0,1.0,318.0,515.0)" opacity="1.0"><path id="ProcessOnPath1025" d="M0.0 0.0L125.0 0.0L125.0 73.0L0.0 73.0Z" stroke="#323232" stroke-width="2.0" stroke-dasharray="none" fill="#ffffff"/><g id="ProcessOnG1026" transform="matrix(1.0,0.0,0.0,1.0,10.0,14.0)"><text id="ProcessOnText1027" fill="#323232" font-weight="normal" font-style="normal" text-decoration="blink" font-family="微软雅黑" text-anchor="middle" font-size="18" x="52.5" y="18.45">基于分布的</text><text id="ProcessOnText1028" fill="#323232" font-weight="normal" font-style="normal" text-decoration="blink" font-family="微软雅黑" text-anchor="middle" font-size="18" x="52.5" y="40.95">聚类算法</text></g></g><g id="ProcessOnG1029" transform="matrix(1.0,0.0,0.0,1.0,502.0,141.0)" opacity="1.0"><path id="ProcessOnPath1030" d="M0.0 0.0L154.0 0.0L154.0 42.0L0.0 42.0Z" stroke="#323232" stroke-width="2.0" stroke-dasharray="none" fill="#ffffff"/><g id="ProcessOnG1031" transform="matrix(1.0,0.0,0.0,1.0,10.0,9.75)"><text id="ProcessOnText1032" fill="#323232" font-weight="normal" font-style="normal" text-decoration="blink" font-family="微软雅黑" text-anchor="middle" font-size="18" x="67.0" y="18.45">ROCK算法</text></g></g><g id="ProcessOnG1033" transform="matrix(1.0,0.0,0.0,1.0,502.0,203.0)" opacity="1.0"><path id="ProcessOnPath1034" d="M0.0 0.0L154.0 0.0L154.0 41.0L0.0 41.0Z" stroke="#323232" stroke-width="2.0" stroke-dasharray="none" fill="#ffffff"/><g id="ProcessOnG1035" transform="matrix(1.0,0.0,0.0,1.0,10.0,9.25)"><text id="ProcessOnText1036" fill="#323232" font-weight="normal" font-style="normal" text-decoration="blink" font-family="微软雅黑" text-anchor="middle" font-size="18" x="67.0" y="18.45">CURE算法</text></g></g><g id="ProcessOnG1037" transform="matrix(1.0,0.0,0.0,1.0,502.0,262.0)" opacity="1.0"><path id="ProcessOnPath1038" d="M0.0 0.0L154.0 0.0L154.0 42.0L0.0 42.0Z" stroke="#323232" stroke-width="2.0" stroke-dasharray="none" fill="#ffffff"/><g id="ProcessOnG1039" transform="matrix(1.0,0.0,0.0,1.0,10.0,9.75)"><text id="ProcessOnText1040" fill="#323232" font-weight="normal" font-style="normal" text-decoration="blink" font-family="微软雅黑" text-anchor="middle" font-size="18" x="67.0" y="18.45">K-means算法</text></g></g><g id="ProcessOnG1041" transform="matrix(1.0,0.0,0.0,1.0,502.0,322.0)" opacity="1.0"><path id="ProcessOnPath1042" d="M0.0 0.0L154.0 0.0L154.0 42.0L0.0 42.0Z" stroke="#323232" stroke-width="2.0" stroke-dasharray="none" fill="#ffffff"/><g id="ProcessOnG1043" transform="matrix(1.0,0.0,0.0,1.0,10.0,9.75)"><text id="ProcessOnText1044" fill="#323232" font-weight="normal" font-style="normal" text-decoration="blink" font-family="微软雅黑" text-anchor="middle" font-size="18" x="67.0" y="18.45">K-medoids算法</text></g></g><g id="ProcessOnG1045" transform="matrix(1.0,0.0,0.0,1.0,502.0,383.0)" opacity="1.0"><path id="ProcessOnPath1046" d="M0.0 0.0L154.0 0.0L154.0 42.0L0.0 42.0Z" stroke="#323232" stroke-width="2.0" stroke-dasharray="none" fill="#ffffff"/><g id="ProcessOnG1047" transform="matrix(1.0,0.0,0.0,1.0,10.0,9.75)"><text id="ProcessOnText1048" fill="#323232" font-weight="normal" font-style="normal" text-decoration="blink" font-family="微软雅黑" text-anchor="middle" font-size="18" x="67.0" y="18.45">DBSCAN算法</text></g></g><g id="ProcessOnG1049" transform="matrix(1.0,0.0,0.0,1.0,502.0,442.0)" opacity="1.0"><path id="ProcessOnPath1050" d="M0.0 0.0L154.0 0.0L154.0 42.0L0.0 42.0Z" stroke="#323232" stroke-width="2.0" stroke-dasharray="none" fill="#ffffff"/><g id="ProcessOnG1051" transform="matrix(1.0,0.0,0.0,1.0,10.0,9.75)"><text id="ProcessOnText1052" fill="#323232" font-weight="normal" font-style="normal" text-decoration="blink" font-family="微软雅黑" text-anchor="middle" font-size="18" x="67.0" y="18.45">OPTICS算法</text></g></g><g id="ProcessOnG1053" transform="matrix(1.0,0.0,0.0,1.0,502.0,530.5)" opacity="1.0"><path id="ProcessOnPath1054" d="M0.0 0.0L154.0 0.0L154.0 42.0L0.0 42.0Z" stroke="#323232" stroke-width="2.0" stroke-dasharray="none" fill="#ffffff"/><g id="ProcessOnG1055" transform="matrix(1.0,0.0,0.0,1.0,10.0,9.75)"><text id="ProcessOnText1056" fill="#323232" font-weight="normal" font-style="normal" text-decoration="blink" font-family="微软雅黑" text-anchor="middle" font-size="18" x="67.0" y="18.45">EM算法</text></g></g><g id="ProcessOnG1057"><path id="ProcessOnPath1058" d="M443.0 192.5L488.4654419973191 168.99667828952147" stroke="#323232" stroke-width="2.0" stroke-dasharray="none" fill="none" marker-end="url(#ProcessOnMarker1059)"/></g><g id="ProcessOnG1061"><path id="ProcessOnPath1062" d="M443.0 192.5L488.51237023158507 216.41327927422267" stroke="#323232" stroke-width="2.0" stroke-dasharray="none" fill="none" marker-end="url(#ProcessOnMarker1063)"/></g><g id="ProcessOnG1065"><path id="ProcessOnPath1066" d="M443.0 312.0L488.3264106770532 289.7209167858552" stroke="#323232" stroke-width="2.0" stroke-dasharray="none" fill="none" marker-end="url(#ProcessOnMarker1067)"/></g><g id="ProcessOnG1069"><path id="ProcessOnPath1070" d="M443.0 312.0L488.51237023158507 335.91327927422265" stroke="#323232" stroke-width="2.0" stroke-dasharray="none" fill="none" marker-end="url(#ProcessOnMarker1071)"/></g><g id="ProcessOnG1073"><path id="ProcessOnPath1074" d="M443.0 433.0L488.3264106770532 410.7209167858552" stroke="#323232" stroke-width="2.0" stroke-dasharray="none" fill="none" marker-end="url(#ProcessOnMarker1075)"/></g><g id="ProcessOnG1077"><path id="ProcessOnPath1078" d="M443.0 433.0L488.4187955620366 456.09430282815424" stroke="#323232" stroke-width="2.0" stroke-dasharray="none" fill="none" marker-end="url(#ProcessOnMarker1079)"/></g><g id="ProcessOnG1081"><path id="ProcessOnPath1082" d="M443.0 551.5L486.7639320225002 551.5" stroke="#323232" stroke-width="2.0" stroke-dasharray="none" fill="none" marker-end="url(#ProcessOnMarker1083)"/></g><g id="ProcessOnG1085"><path id="ProcessOnPath1086" d="M222.0 373.0L309.32599455833537 208.80893731479648" stroke="#323232" stroke-width="4.0" stroke-dasharray="none" fill="none" marker-end="url(#ProcessOnMarker1087)"/></g><g id="ProcessOnG1089"><path id="ProcessOnPath1090" d="M222.0 373.0L302.4090865625816 321.9067262466929" stroke="#323232" stroke-width="4.0" stroke-dasharray="none" fill="none" marker-end="url(#ProcessOnMarker1091)"/></g><g id="ProcessOnG1093"><path id="ProcessOnPath1094" d="M222.0 373.0L302.33566003880895 423.2097875242556" stroke="#323232" stroke-width="4.0" stroke-dasharray="none" fill="none" marker-end="url(#ProcessOnMarker1095)"/></g><g id="ProcessOnG1097"><path id="ProcessOnPath1098" d="M222.0 373.0L309.2505171839416 535.2314303888913" stroke="#323232" stroke-width="4.0" stroke-dasharray="none" fill="none" marker-end="url(#ProcessOnMarker1099)"/></g></g></g></svg>